<?xml version="1.0" encoding="UTF-8" standalone="no" ?>
  <!DOCTYPE svg PUBLIC "-//W3C//DTD SVG 1.1//EN" "http://www.w3.org/Graphics/SVG/1.1/DTD/svg11.dtd">
<svg xmlns="http://www.w3.org/2000/svg" xmlns:xlink="http://www.w3.org/1999/xlink" version="1.1" width="600" height="480" viewBox="0 0 600 480" xml:space="preserve">
<desc>Created with Fabric.js 5.1.0</desc>
<defs>
</defs>
<g transform="matrix(1.44 0 0 1.44 272.97 216.73)"  >
<path style="stroke: none; stroke-width: 1; stroke-dasharray: none; stroke-linecap: butt; stroke-dashoffset: 0; stroke-linejoin: miter; stroke-miterlimit: 4; fill: rgb(133,224,215); fill-rule: nonzero; opacity: 1;"  transform=" translate(-155.95, -137.44)" d="M 172.77 261.49 C 164.86 258.77 157.85000000000002 254.31 150.77 250.01000000000002 C 112 226.42 77.62 197.64 52.07 159.78 C 35.28 134.91 36.870000000000005 141.64 41.980000000000004 113.78 C 48.38 78.83 66.98 50.78 94.98 29.010000000000005 C 96.20976300017117 28.161759738056297 97.48866714656188 27.38707106452459 98.80999999999999 26.690000000000015 C 112.94 18.690000000000005 128.81 16.990000000000006 144.37 14.870000000000005 C 156.72515672313222 13.17970397172189 169.1915655534422 12.437536430738005 181.65999999999994 12.649999999999977 C 183.49 12.650000000000004 185.34 12.560000000000004 187.07 13.330000000000004 C 189.07 14.200000000000003 189.60999999999999 15.390000000000004 187.89 17.080000000000005 C 186.22 18.380000000000006 184.19 18.400000000000006 182.22 18.700000000000006 C 130.29 26.58 91.41 67.11 87 119.12 C 84.34 150.41 93.44 178.49 114.47 202.12 C 137.14 227.6 166 240 200 239.63 C 223.8 239.35999999999999 245.39 231.51999999999998 264.49 217.12 C 266.7 215.46 268.6 213.12 271.74 213.06 C 275.29 215.74 272.33 217.83 270.84000000000003 219.57 C 266.24504994356215 224.8403449465146 261.08397601407495 229.58893538456127 255.45000000000005 233.72999999999996 C 232.94000000000005 250.47 207.15000000000003 258.51 179.73000000000005 262.19 C 177.33 262.51 175.06 261.8 172.77 261.49 Z" stroke-linecap="round" />
  </g>
<g transform="matrix(1.44 0 0 1.44 351.66 219.55)"  >
<path style="stroke: none; stroke-width: 1; stroke-dasharray: none; stroke-linecap: butt; stroke-dashoffset: 0; stroke-linejoin: miter; stroke-miterlimit: 4; fill: rgb(29,141,209); fill-rule: nonzero; opacity: 1;"  transform=" translate(-210.97, -139.32)" d="M 187.07 16.23 C 188.35 14.58 186.97 14.88 186.07 14.86 C 158.54999999999998 14.299999999999999 131.45999999999998 17.1 105.07 25.1 C 103.02 25.720000000000002 100.91 26.1 98.83 26.67 C 111.62 16.5 126.26 9.9 141.9 5.48 C 179.88103802909802 -5.410456036952155 220.6822038140098 0.016254535665176206 254.49624162212203 20.455729322756323 C 288.31027943023423 40.89520410984747 312.07929490956997 74.49904645250098 320.09000000000003 113.19000000000013 C 335.23999999999995 184.5 292.09 257.19 222.23999999999998 277.9 C 220.82999999999998 278.32 219.17 278.9 217.87999999999997 278.54999999999995 C 202.37999999999997 274.10999999999996 186.87999999999997 269.67999999999995 172.76999999999998 261.48999999999995 C 183.14 259.43999999999994 193.67999999999998 258.41999999999996 203.95 255.72999999999996 C 229.23999999999998 249.11999999999995 251.7 237.64999999999998 269.6 218.17999999999995 C 270.85 216.81999999999994 272.93 215.76999999999995 272.21000000000004 213.29999999999995 C 271.3 210.63999999999996 273.33000000000004 209.35999999999996 274.83000000000004 207.90999999999997 C 295.00000000000006 188.45999999999998 305.83000000000004 164.66999999999996 308.01000000000005 136.80999999999997 C 310.52000000000004 104.43999999999997 300.31000000000006 76.34999999999997 278.44000000000005 52.809999999999974 C 262.81 36 243.69 24.45 220.57 20.67 C 210.57 19.040000000000003 200.57 17.03 190.35 17.740000000000002 C 189.09 17.83 187.61 17.92 187.07 16.23 Z" stroke-linecap="round" />
  </g>
<g transform="matrix(1.44 0 0 1.44 269.54 270.85)"  >
<path style="stroke: none; stroke-width: 1; stroke-dasharray: none; stroke-linecap: butt; stroke-dashoffset: 0; stroke-linejoin: miter; stroke-miterlimit: 4; fill: rgb(83,99,254); fill-rule: nonzero; opacity: 1;"  transform=" translate(-153.33, -177.42)" d="M 300.82 240.2 C 306.18 255.2 309.43 270.01 303.46 285.11 C 298.09 298.7 286.19 303.39 272.76 304.5 C 248.53 306.5 226 299.4 204.07 290.31 C 159.34 271.77 120 244.72 84 212.6 C 58.22 189.54 35 164.2 17.24 134.24 C 9 120.3 2.28 105.72 0.35 89.33 C -2.22 67.58 9.57 52.88 31.26 50.45 C 39.47 49.540000000000006 47.55 50.21 55.68000000000001 50.71 C 58.330000000000005 50.87 59.39000000000001 51.49 57.68000000000001 54.24 C 54.59 59.36 51.68000000000001 64.59 48.78000000000001 69.83 C 48.21478930515498 70.84546421633775 47.26836998061994 71.59396314981032 46.150000000000006 71.91 C 30.150000000000006 77.45 22.270000000000007 92.22 25.410000000000007 111.91 C 28.410000000000007 130.76999999999998 37.13000000000001 147.17 47.89000000000001 162.48 C 78.03 205.42 117.39000000000001 237.92 163.39000000000001 262.58 C 184.15 273.71 205.93 282.24 229.53000000000003 285.09999999999997 C 239.99000000000004 286.35999999999996 250.53000000000003 286.28999999999996 260.53000000000003 282.43999999999994 C 270.28000000000003 278.7199999999999 277.11 272.0899999999999 279.86 261.80999999999995 C 280.5595571628713 259.45723125166944 281.97955753922446 257.38319129310423 283.92 255.87999999999994 C 289.6 250.94 295 245.71 300.82 240.2 Z" stroke-linecap="round" />
  </g>
<g transform="matrix(1.44 0 0 1.44 180.71 336.94)"  >
<path style="stroke: none; stroke-width: 1; stroke-dasharray: none; stroke-linecap: butt; stroke-dashoffset: 0; stroke-linejoin: miter; stroke-miterlimit: 4; fill: rgb(133,224,215); fill-rule: nonzero; opacity: 1;"  transform=" translate(-91.92, -221.95)" d="M 99.15 257.85 C 72.15 239.10000000000002 54.400000000000006 213.67000000000002 44.790000000000006 182.39000000000004 C 44.761260870077244 181.68139571315353 44.825133702835785 180.9720710967297 44.980000000000004 180.28000000000003 C 72.66004038227557 211.1966525410338 104.28822549553507 238.3363049524541 139.04999999999995 260.99999999999994 C 138.22 263.35 136.11 263.75 134.18 263.6 C 122.35 262.63 110.26 263.24 99.15 257.85 Z" stroke-linecap="round" />
  </g>
<g transform="matrix(1.44 0 0 1.44 246.1 406.29)"  >
<path style="stroke: none; stroke-width: 1; stroke-dasharray: none; stroke-linecap: butt; stroke-dashoffset: 0; stroke-linejoin: miter; stroke-miterlimit: 4; fill: rgb(29,141,209); fill-rule: nonzero; opacity: 1;"  transform=" translate(-137.66, -270.6)" d="M 99.15 257.85 C 110.64 259.48 122.15 261.04 133.73000000000002 261.61 C 135.51000000000002 261.7 137.4 262.15000000000003 139.05 260.96000000000004 C 150.93 268.96000000000004 163.38 275.96000000000004 176.16000000000003 282.86 C 160.69 285.74 121.34 275.45 99.15 257.85 Z" stroke-linecap="round" />
  </g>
<g transform="matrix(1.44 0 0 1.44 332.44 204.28)"  >
<path style="stroke: none; stroke-width: 1; stroke-dasharray: none; stroke-linecap: butt; stroke-dashoffset: 0; stroke-linejoin: miter; stroke-miterlimit: 4; fill: rgb(21,38,68); fill-rule: nonzero; opacity: 1;"  transform=" translate(-197.53, -128.81)" d="M 187.07 16.23 C 213.07 15.23 237.85 19.55 259.73 34.55 C 289.94 55.269999999999996 307.15000000000003 83.89 309.93 120.61999999999999 C 312.35 152.62 302.11 180.52999999999997 281.03000000000003 204.55 C 278.3 207.66000000000003 275.15000000000003 210.4 272.20000000000005 213.31 C 249.32000000000005 232.83 222.88000000000005 242.47 192.76000000000005 241.46 C 141.00000000000006 239.73000000000002 96.18000000000005 200.91000000000003 86.76000000000005 149.83 C 75 86.36 116.58 27.55 180.62 17 C 182.75 16.61 184.92 16.47 187.07 16.23 Z" stroke-linecap="round" />
  </g>
<g transform="matrix(1.44 0 0 1.44 325.55 209.6)"  >
<path style="stroke: none; stroke-width: 1; stroke-dasharray: none; stroke-linecap: butt; stroke-dashoffset: 0; stroke-linejoin: miter; stroke-miterlimit: 4; fill: rgb(254,254,254); fill-rule: nonzero; opacity: 1;"  transform=" translate(-192.78, -132.58)" d="M 192.58 29.73 C 249.52 29.73 295.68 75.73 295.64 132.42 C 295.59999999999997 189.10999999999996 249.17999999999998 235.57999999999998 192.7 235.42 C 136 235.26 89.79 188.93 89.92 132.29 C 90.0576318570526 75.66575807629997 135.95565083542633 29.81244786373412 192.57999999999993 29.730000000000004 Z" stroke-linecap="round" />
  </g>
<g transform="matrix(1.44 0 0 1.44 308.21 223.15)"  >
<path style="stroke: none; stroke-width: 1; stroke-dasharray: none; stroke-linecap: butt; stroke-dashoffset: 0; stroke-linejoin: miter; stroke-miterlimit: 4; fill: rgb(21,38,68); fill-rule: nonzero; opacity: 1;"  transform=" translate(-180.81, -142.19)" d="M 180.79 223.76 C 135.79 223.76 99.02 187.10999999999999 99.02999999999999 142.27999999999997 C 99.02999999999999 97.27999999999997 135.63 60.57999999999997 180.51999999999998 60.62999999999997 C 225.76999999999998 60.68999999999997 262.36 96.85999999999996 262.58 141.75999999999996 C 262.8 186.81 225.89 223.81 180.79 223.76 Z" stroke-linecap="round" />
  </g>
<g transform="matrix(1.44 0 0 1.44 323.47 210.16)"  >
<path style="stroke: none; stroke-width: 1; stroke-dasharray: none; stroke-linecap: butt; stroke-dashoffset: 0; stroke-linejoin: miter; stroke-miterlimit: 4; fill: rgb(29,141,209); fill-rule: nonzero; opacity: 1;"  transform=" translate(-191.56, -133.22)" d="M 255.84 151.72 C 255.84 174.66 235.84 196.85 212.76 199.65 C 181.68 203.41 151.14 185.75 135.83999999999997 155.01 C 126.67999999999998 136.58999999999997 124.04999999999998 117.39999999999999 131.97999999999996 98.00999999999999 C 140.09999999999997 78.14999999999999 155.44999999999996 67.49 177.04999999999995 66.41 C 185.89999999999995 65.97999999999999 194.66999999999996 66.56 202.83999999999995 70.6 C 202.19999999999996 73.36999999999999 199.74999999999994 73.89 197.61999999999995 74.64999999999999 C 185.74806815446246 78.97425343670844 174.54461831604797 84.94965111194452 164.33999999999995 92.39999999999998 C 161.6827070231709 94.37355619441703 159.26024796766066 96.64503095976389 157.11999999999992 99.17000000000002 C 148.33999999999995 108.80999999999999 142.58999999999995 119.61999999999999 142.59999999999994 133.17 C 142.59999999999994 161.51 164.22999999999993 188.07999999999998 192.06999999999994 193.5 C 207.85999999999993 196.58 221.30999999999995 192.5 232.06999999999994 180.19 C 233.1086378911286 178.89135420245887 234.2561284920696 177.6836454358708 235.49999999999994 176.57999999999998 C 242.40999999999994 170.76 246.40999999999994 162.73 251.49999999999994 155.51 C 252.55 153.89 253 151.33 255.84 151.72 Z" stroke-linecap="round" />
  </g>
<g transform="matrix(1.44 0 0 1.44 344.44 197.21)"  >
<path style="stroke: none; stroke-width: 1; stroke-dasharray: none; stroke-linecap: butt; stroke-dashoffset: 0; stroke-linejoin: miter; stroke-miterlimit: 4; fill: rgb(133,224,215); fill-rule: nonzero; opacity: 1;"  transform=" translate(-206.31, -124.24)" d="M 156 97.73 C 167.53 86.35000000000001 181.45 78.94 196.45 73.30000000000001 C 198.60999999999999 72.48000000000002 200.72 71.52000000000001 202.85 70.63000000000001 C 218.39 75.51 230.14 85.53000000000002 239.85 98.15 C 249.85998583757862 110.9659513053773 255.67105855581093 126.55876361722056 256.49 142.79999999999993 C 256.66 145.8 256.81 148.8 255.81 151.72 C 250.81 159.58 245.95 167.54 239.81 174.63 C 238.72 175.91 237.73 177.23 236.09 177.84 C 235.18 175.94 236.03 174.26 236.77 172.6 C 243.02 158.49 242.44 144.26 236.33 130.5 C 226.69 108.78999999999999 210.4 95.03999999999999 186.33 91.86 C 178.20000000000002 90.79 170.5 92.73 163.23000000000002 96.49 C 161 97.65 158.83 99.78 156 97.73 Z" stroke-linecap="round" />
  </g>
<g transform="matrix(1.44 0 0 1.44 323.74 224.13)"  >
<path style="stroke: none; stroke-width: 1; stroke-dasharray: none; stroke-linecap: butt; stroke-dashoffset: 0; stroke-linejoin: miter; stroke-miterlimit: 4; fill: rgb(21,38,68); fill-rule: nonzero; opacity: 1;"  transform=" translate(-191.83, -143.05)" d="M 156 97.73 C 156.65 97.65 157.45 97.73 157.92 97.44 C 177.64999999999998 83.16 204.71999999999997 90.50999999999999 220.70999999999998 105.37 C 237.78999999999996 121.23 246.09999999999997 140.45 241.79999999999998 164.06 C 240.7767820726194 168.9543179235103 238.86885242625323 173.62078172998667 236.17 177.83 C 224.1 195.83 203.75 199.83 184.85999999999999 193.61 C 158.91 185.13000000000002 140.23 158.67000000000002 140.75 131.43 C 141 117.91 147.36 107.36 156 97.73 Z" stroke-linecap="round" />
  </g>
  </svg>
